<svg width="95" height="46" viewBox="0 0 95 46" fill="none" xmlns="http://www.w3.org/2000/svg">
<path d="M6.032 29.016C5.36 29.016 4.784 28.92 4.304 28.728C3.856 28.536 3.6 28.376 3.536 28.248C3.504 28.184 3.504 28.136 3.536 28.104C3.568 28.04 3.616 28.04 3.68 28.104C3.872 28.232 4.24 28.296 4.784 28.296C5.392 28.296 6.16 28.136 7.088 27.816C8.016 27.464 9.008 26.776 10.064 25.752C10.928 24.888 11.808 23.832 12.704 22.584C13.6 21.304 14.56 19.928 15.584 18.456C14.528 18.232 13.536 17.896 12.608 17.448C11.712 16.968 11.12 16.28 10.832 15.384C10.768 15.128 10.784 15 10.88 15C10.976 15 11.056 15.08 11.12 15.24C11.344 15.592 11.824 15.832 12.56 15.96C13.296 16.056 14.048 16.104 14.816 16.104C15.296 16.104 15.744 16.088 16.16 16.056C16.608 16.024 16.944 16.008 17.168 16.008H17.312C18.944 13.736 20.8 11.48 22.88 9.24C24.96 6.968 27.376 5.064 30.128 3.528C31.952 2.504 33.76 1.8 35.552 1.416C37.376 0.999999 39.12 0.792 40.784 0.792C42.48 0.792 43.92 1.224 45.104 2.088C46.32 2.92 46.928 4.04 46.928 5.448C46.928 7.112 45.936 8.92 43.952 10.872C41.968 12.824 38.88 14.568 34.688 16.104C32.352 16.968 29.872 17.672 27.248 18.216C24.656 18.728 22.08 18.936 19.52 18.84C19.104 18.84 18.656 18.824 18.176 18.792C17.696 18.76 17.184 18.696 16.64 18.6C15.488 20.36 14.416 21.992 13.424 23.496C12.432 24.968 11.488 26.136 10.592 27C9.792 27.768 8.976 28.296 8.144 28.584C7.312 28.872 6.608 29.016 6.032 29.016ZM18.512 15.864C20.688 15.608 22.96 15.16 25.328 14.52C27.728 13.88 29.968 13.176 32.048 12.408C36.08 10.936 38.976 9.448 40.736 7.944C42.528 6.408 43.424 5.08 43.424 3.96C43.424 3.128 43.056 2.52 42.32 2.136C41.584 1.752 40.736 1.56 39.776 1.56C38.528 1.56 37.072 1.752 35.408 2.136C33.776 2.488 32.112 3.112 30.416 4.008C27.984 5.288 25.792 7.016 23.84 9.192C21.888 11.336 20.112 13.56 18.512 15.864ZM35.264 36.264C35.04 36.264 34.976 36.104 35.072 35.784C35.104 35.688 35.12 35.56 35.12 35.4C35.12 34.76 34.544 34.152 33.392 33.576C32.24 33.032 30.624 32.6 28.544 32.28C26.464 31.928 24 31.752 21.152 31.752C19.392 31.752 17.68 31.832 16.016 31.992C14.352 32.12 12.816 32.344 11.408 32.664C10.416 32.888 9.344 33.176 8.192 33.528C7.072 33.88 6 34.2 4.976 34.488C3.952 34.808 3.072 34.968 2.336 34.968C1.856 34.968 1.472 34.872 1.184 34.68C0.864 34.52 0.704 34.184 0.704 33.672C0.704 32.936 1.168 32.136 2.096 31.272C3.056 30.376 4.688 29.624 6.992 29.016C8.88 28.472 10.608 28.136 12.176 28.008C13.744 27.88 15.312 27.816 16.88 27.816C23.248 27.816 27.968 28.488 31.04 29.832C34.144 31.176 35.696 32.888 35.696 34.968C35.696 35.096 35.696 35.208 35.696 35.304C35.696 35.432 35.68 35.576 35.648 35.736C35.616 36.088 35.488 36.264 35.264 36.264ZM39.5866 33.432C38.3386 33.432 37.3946 33.128 36.7546 32.52C36.1466 31.88 35.8426 31.064 35.8426 30.072C35.8426 29.464 35.9226 28.872 36.0826 28.296C36.2426 27.72 36.4186 27.208 36.6106 26.76C36.3866 26.984 36.1626 27.192 35.9386 27.384C35.7466 27.544 35.5866 27.672 35.4586 27.768C35.3306 27.864 35.2186 27.912 35.1226 27.912C34.9946 27.912 34.9306 27.832 34.9306 27.672C34.9306 27.448 35.0906 27.192 35.4106 26.904C36.5306 25.976 37.4106 25.16 38.0506 24.456C38.6906 23.72 39.3626 23.048 40.0666 22.44C41.2506 21.416 42.5146 20.616 43.8586 20.04C45.2026 19.464 46.5466 19.176 47.8906 19.176C49.2986 19.176 50.4026 19.512 51.2026 20.184C52.0026 20.856 52.4026 21.848 52.4026 23.16C52.4026 23.896 52.1786 24.744 51.7306 25.704C51.3146 26.664 50.6426 27.656 49.7146 28.68C49.3306 29.096 48.8986 29.512 48.4186 29.928C47.9386 30.312 47.5226 30.6 47.1706 30.792C48.7386 30.632 50.2106 30.088 51.5866 29.16C52.9626 28.2 54.1946 27.256 55.2826 26.328C55.4426 26.232 55.5546 26.184 55.6186 26.184C55.7786 26.184 55.8586 26.264 55.8586 26.424C55.8586 26.552 55.7786 26.696 55.6186 26.856C54.2426 28.168 52.7546 29.272 51.1546 30.168C49.5866 31.064 47.8426 31.496 45.9226 31.464C44.8026 32.072 43.6986 32.552 42.6106 32.904C41.5546 33.256 40.5466 33.432 39.5866 33.432ZM41.7466 32.088C42.1946 32.088 42.6746 32.008 43.1866 31.848C43.6986 31.688 44.2106 31.48 44.7226 31.224C44.5306 31.224 44.3386 31.128 44.1466 30.936C43.9866 30.744 43.9066 30.488 43.9066 30.168C43.9066 29.528 44.1466 28.872 44.6266 28.2C45.1066 27.528 45.6986 26.952 46.4026 26.472C47.1066 25.992 47.7946 25.752 48.4666 25.752C48.8506 25.752 49.2026 25.864 49.5226 26.088C49.8746 26.28 50.0666 26.552 50.0986 26.904C50.6426 26.296 51.0106 25.64 51.2026 24.936C51.4266 24.232 51.5386 23.576 51.5386 22.968C51.5386 22.136 51.2666 21.512 50.7226 21.096C50.2106 20.648 49.5066 20.424 48.6106 20.424C47.7466 20.424 46.7866 20.728 45.7306 21.336C44.7066 21.944 43.7306 22.728 42.8026 23.688C41.9066 24.648 41.1546 25.688 40.5466 26.808C39.9706 27.928 39.6826 29 39.6826 30.024C39.6826 31.4 40.3706 32.088 41.7466 32.088ZM50.7905 45.816C48.8385 45.816 47.2225 45.592 45.9425 45.144C44.6625 44.696 43.6385 44.088 42.8705 43.32C42.3585 42.776 41.8785 42.056 41.4305 41.16C40.9825 40.296 40.7585 39.56 40.7585 38.952C40.7585 38.728 40.8065 38.616 40.9025 38.616C41.1265 38.616 41.2705 38.744 41.3345 39C41.3345 39.096 41.4465 39.464 41.6705 40.104C41.8625 40.744 42.2305 41.448 42.7745 42.216C43.3185 42.984 44.1185 43.656 45.1745 44.232C46.2305 44.808 47.6065 45.096 49.3025 45.096C51.3185 45.096 53.1265 44.616 54.7265 43.656C56.3265 42.728 57.7505 41.496 58.9985 39.96C60.2785 38.456 61.4465 36.808 62.5025 35.016C63.5585 33.224 64.5665 31.464 65.5265 29.736C66.4865 28.008 67.4625 26.488 68.4545 25.176C68.0385 25.624 67.5105 26.184 66.8705 26.856C66.2625 27.496 65.6065 28.152 64.9025 28.824C64.1985 29.496 63.5265 30.104 62.8865 30.648C62.2465 31.192 61.7185 31.592 61.3025 31.848C60.5985 32.264 59.9265 32.568 59.2865 32.76C58.6785 32.952 58.1185 33.048 57.6065 33.048C56.6145 33.048 55.8465 32.744 55.3025 32.136C54.7585 31.496 54.4865 30.68 54.4865 29.688C54.4865 28.76 54.7265 27.736 55.2065 26.616C55.7185 25.496 56.5185 24.36 57.6065 23.208C58.7265 21.992 60.1185 21.016 61.7825 20.28C63.4465 19.512 65.0305 19.128 66.5345 19.128C67.0785 19.128 67.6065 19.192 68.1185 19.32C68.6305 19.416 69.0945 19.592 69.5105 19.848C70.0865 20.2 70.5025 20.536 70.7585 20.856C71.0465 21.144 71.2545 21.496 71.3825 21.912C71.5745 21.912 71.8785 22.008 72.2945 22.2C72.7105 22.36 73.0945 22.568 73.4465 22.824C73.7985 23.048 73.9745 23.288 73.9745 23.544C73.9745 23.672 73.8465 23.816 73.5905 23.976C72.9505 24.296 72.2305 25.064 71.4305 26.28C70.6305 27.464 69.7345 28.888 68.7425 30.552C67.7825 32.184 66.6945 33.88 65.4785 35.64C64.2945 37.432 62.9665 39.096 61.4945 40.632C60.0225 42.168 58.3905 43.416 56.5985 44.376C54.8385 45.336 52.9025 45.816 50.7905 45.816ZM58.9505 31.8C59.5905 31.8 60.3745 31.48 61.3025 30.84C62.0065 30.36 62.7745 29.768 63.6065 29.064C64.4385 28.328 65.2545 27.56 66.0545 26.76C66.8545 25.96 67.5425 25.224 68.1185 24.552C69.1745 23.336 69.7025 22.344 69.7025 21.576C69.7025 20.936 69.3185 20.616 68.5505 20.616C67.7825 20.616 66.7265 20.984 65.3825 21.72C64.6145 22.136 63.7985 22.728 62.9345 23.496C62.0705 24.264 61.2545 25.096 60.4865 25.992C59.7505 26.888 59.1585 27.72 58.7105 28.488C58.1985 29.416 57.9425 30.168 57.9425 30.744C57.9425 31.448 58.2785 31.8 58.9505 31.8ZM78.3523 33.432C77.1043 33.432 76.1603 33.128 75.5203 32.52C74.9123 31.88 74.6082 31.064 74.6082 30.072C74.6082 29.464 74.6883 28.872 74.8483 28.296C75.0083 27.72 75.1843 27.208 75.3763 26.76C75.1523 26.984 74.9283 27.192 74.7043 27.384C74.5122 27.544 74.3522 27.672 74.2242 27.768C74.0962 27.864 73.9842 27.912 73.8882 27.912C73.7602 27.912 73.6962 27.832 73.6962 27.672C73.6962 27.448 73.8562 27.192 74.1762 26.904C75.2963 25.976 76.1763 25.16 76.8163 24.456C77.4563 23.72 78.1283 23.048 78.8323 22.44C80.0163 21.416 81.2803 20.616 82.6243 20.04C83.9683 19.464 85.3123 19.176 86.6562 19.176C88.0642 19.176 89.1683 19.512 89.9683 20.184C90.7683 20.856 91.1683 21.848 91.1683 23.16C91.1683 23.896 90.9443 24.744 90.4963 25.704C90.0803 26.664 89.4083 27.656 88.4803 28.68C88.0963 29.096 87.6643 29.512 87.1843 29.928C86.7043 30.312 86.2883 30.6 85.9363 30.792C87.5043 30.632 88.9763 30.088 90.3523 29.16C91.7283 28.2 92.9603 27.256 94.0483 26.328C94.2083 26.232 94.3203 26.184 94.3843 26.184C94.5443 26.184 94.6243 26.264 94.6243 26.424C94.6243 26.552 94.5443 26.696 94.3843 26.856C93.0083 28.168 91.5203 29.272 89.9203 30.168C88.3523 31.064 86.6083 31.496 84.6883 31.464C83.5683 32.072 82.4643 32.552 81.3763 32.904C80.3203 33.256 79.3123 33.432 78.3523 33.432ZM80.5123 32.088C80.9603 32.088 81.4403 32.008 81.9523 31.848C82.4643 31.688 82.9763 31.48 83.4883 31.224C83.2963 31.224 83.1043 31.128 82.9123 30.936C82.7523 30.744 82.6723 30.488 82.6723 30.168C82.6723 29.528 82.9123 28.872 83.3923 28.2C83.8723 27.528 84.4643 26.952 85.1683 26.472C85.8723 25.992 86.5603 25.752 87.2323 25.752C87.6163 25.752 87.9683 25.864 88.2883 26.088C88.6403 26.28 88.8323 26.552 88.8643 26.904C89.4083 26.296 89.7763 25.64 89.9683 24.936C90.1923 24.232 90.3043 23.576 90.3043 22.968C90.3043 22.136 90.0323 21.512 89.4883 21.096C88.9763 20.648 88.2723 20.424 87.3763 20.424C86.5123 20.424 85.5523 20.728 84.4963 21.336C83.4723 21.944 82.4963 22.728 81.5683 23.688C80.6723 24.648 79.9203 25.688 79.3123 26.808C78.7363 27.928 78.4483 29 78.4483 30.024C78.4483 31.4 79.1363 32.088 80.5123 32.088Z" fill="#FE0150"/>
</svg>
