<svg width="27" height="20" viewBox="0 0 27 20" fill="none" xmlns="http://www.w3.org/2000/svg">
<path fill-rule="evenodd" clip-rule="evenodd" d="M26.9565 10C26.9565 9.27963 26.3725 8.69565 25.6522 8.69565H1.30435C0.583975 8.69565 0 9.27963 0 10C0 10.7204 0.583975 11.3043 1.30435 11.3043H25.6522C26.3725 11.3043 26.9565 10.7204 26.9565 10Z" fill="#706E6E"/>
<path fill-rule="evenodd" clip-rule="evenodd" d="M26.9565 1.30435C26.9565 0.583976 26.3725 0 25.6522 0H1.30435C0.583975 0 0 0.583976 0 1.30435C0 2.02472 0.583975 2.6087 1.30435 2.6087H25.6522C26.3725 2.6087 26.9565 2.02472 26.9565 1.30435Z" fill="#706E6E"/>
<path fill-rule="evenodd" clip-rule="evenodd" d="M26.9565 18.6957C26.9565 17.9753 26.3725 17.3913 25.6522 17.3913H1.30435C0.583975 17.3913 0 17.9753 0 18.6957C0 19.416 0.583975 20 1.30435 20H25.6522C26.3725 20 26.9565 19.416 26.9565 18.6957Z" fill="#706E6E"/>
</svg>
