<svg width="22" height="21" viewBox="0 0 22 21" fill="none" xmlns="http://www.w3.org/2000/svg">
<g clip-path="url(#clip0_1_3474)">
<path d="M20.7915 2.62501C19.9536 3.21605 19.0258 3.66811 18.044 3.96376C17.517 3.35783 16.8167 2.92837 16.0377 2.73345C15.2586 2.53852 14.4386 2.58756 13.6883 2.87391C12.9381 3.16026 12.2939 3.67011 11.8429 4.33451C11.3918 4.99891 11.1557 5.7858 11.1665 6.58876V7.46376C9.62881 7.50363 8.10512 7.1626 6.73114 6.47103C5.35715 5.77945 4.17553 4.75882 3.2915 3.50001C3.2915 3.50001 -0.208496 11.375 7.6665 14.875C5.86447 16.0982 3.71777 16.7116 1.5415 16.625C9.4165 21 19.0415 16.625 19.0415 6.56251C19.0407 6.31878 19.0173 6.07566 18.9715 5.83626C19.8645 4.95557 20.4947 3.84363 20.7915 2.62501V2.62501Z" stroke="#D3D3D3" stroke-linecap="round" stroke-linejoin="round"/>
</g>
<defs>
<clipPath id="clip0_1_3474">
<rect width="21" height="21" fill="white" transform="translate(0.666504)"/>
</clipPath>
</defs>
</svg>
